<?xml version="1.0" encoding="UTF-8" standalone="no"?>
<!-- Created with Inkscape (http://www.inkscape.org/) -->

<svg
   xmlns:dc="http://purl.org/dc/elements/1.1/"
   xmlns:cc="http://creativecommons.org/ns#"
   xmlns:rdf="http://www.w3.org/1999/02/22-rdf-syntax-ns#"
   xmlns:svg="http://www.w3.org/2000/svg"
   xmlns="http://www.w3.org/2000/svg"
   xmlns:sodipodi="http://sodipodi.sourceforge.net/DTD/sodipodi-0.dtd"
   xmlns:inkscape="http://www.inkscape.org/namespaces/inkscape"
   width="36"
   height="36"
   id="svg2"
   version="1.1"
   inkscape:version="0.48.4 r9939"
   sodipodi:docname="candy-cane.svg"
   inkscape:export-filename="/home/jholveck/src/christmas-tree/decorations/candy-cane.png"
   inkscape:export-xdpi="200"
   inkscape:export-ydpi="200"
   enable-background="new">
  <defs
     id="defs4">
    <filter
       inkscape:collect="always"
       id="filter3993">
      <feBlend
         inkscape:collect="always"
         mode="darken"
         in2="BackgroundImage"
         id="feBlend3995" />
    </filter>
  </defs>
  <sodipodi:namedview
     id="base"
     pagecolor="#ffffff"
     bordercolor="#666666"
     borderopacity="1.0"
     inkscape:pageopacity="0.0"
     inkscape:pageshadow="2"
     inkscape:zoom="22.4"
     inkscape:cx="8.0081063"
     inkscape:cy="18.093488"
     inkscape:document-units="in"
     inkscape:current-layer="layer1"
     showgrid="false"
     units="in"
     inkscape:window-width="1920"
     inkscape:window-height="1006"
     inkscape:window-x="-2"
     inkscape:window-y="-3"
     inkscape:window-maximized="1" />
  <metadata
     id="metadata7">
    <rdf:RDF>
      <cc:Work
         rdf:about="">
        <dc:format>image/svg+xml</dc:format>
        <dc:type
           rdf:resource="http://purl.org/dc/dcmitype/StillImage" />
        <dc:title></dc:title>
      </cc:Work>
    </rdf:RDF>
  </metadata>
  <g
     inkscape:label="Layer 1"
     inkscape:groupmode="layer"
     id="layer1"
     transform="translate(0,-1016.3597)"
     style="filter:url(#filter3993)">
    <path
       style="fill:#000000;stroke:#000000;stroke-width:0.98519033000000000px;stroke-linecap:butt;stroke-linejoin:miter;stroke-opacity:1"
       d="m 9.9678511,1028.6126 c 1.4944249,0.1147 3.5118499,1.5866 4.6586009,0.872 0.964354,-1.7918 1.090143,-4.1739 2.83231,-5.4544 1.383616,-0.5222 3.282837,0.4073 3.583039,1.9328 0.396854,1.6996 -0.269212,3.3981 -0.119647,5.1132 0,6.7497 0,13.4995 0,20.2492 2.346434,0 4.692867,0 7.039301,0 0,-7.8158 0,-15.6317 0,-23.4475 0.460806,-3.0497 -0.532636,-6.4857 -3.207771,-8.2424 -2.242953,-1.5095 -5.036813,-2.1474 -7.706838,-2.1125 -3.204884,0.491 -5.510144,3.2748 -6.316319,6.2764 -0.47078,1.5607 -0.684385,3.1883 -0.7626759,4.8132 z"
       id="path3058"
       inkscape:connector-curvature="0" />
    <path
       style="fill:none;stroke:#ffffff;stroke-width:3.59999989999999981;stroke-linecap:butt;stroke-linejoin:miter;stroke-miterlimit:4;stroke-opacity:1;stroke-dasharray:none"
       d="m 7.4253286,1041.9257 c 7.9664394,2.1346 15.9328714,4.2692 23.8993214,6.4038"
       id="path3954" />
    <path
       style="fill:none;stroke:#ffffff;stroke-width:3.59999989999999981;stroke-linecap:butt;stroke-linejoin:miter;stroke-miterlimit:4;stroke-opacity:1;stroke-dasharray:none"
       d="m 7.8271141,1035.4078 c 7.9664389,2.1346 15.9328709,4.2692 23.8993209,6.4038"
       id="path3952" />
    <path
       style="fill:none;stroke:#ffffff;stroke-width:3.59999989999999981;stroke-linecap:butt;stroke-linejoin:miter;stroke-miterlimit:4;stroke-opacity:1;stroke-dasharray:none"
       d="m 7.112829,1027.2828 c 7.966439,2.1346 15.932871,4.2692 23.899321,6.4038"
       id="path3950" />
    <path
       style="fill:none;stroke:#ffffff;stroke-width:3.59999989999999981;stroke-linecap:butt;stroke-linejoin:miter;stroke-miterlimit:4;stroke-opacity:1;stroke-dasharray:none"
       d="m 8.2142857,1020.0829 c 7.9664393,2.1346 15.9328713,4.2692 23.8993213,6.4038"
       id="path3060-7" />
    <path
       inkscape:connector-curvature="0"
       id="path3997"
       d="m 9.9678511,1028.6126 c 1.4944249,0.1147 3.5118499,1.5866 4.6586009,0.872 0.964354,-1.7918 1.090143,-4.1739 2.83231,-5.4544 1.383616,-0.5222 3.282837,0.4073 3.583039,1.9328 0.396854,1.6996 -0.269212,3.3981 -0.119647,5.1132 0,6.7497 0,13.4995 0,20.2492 2.346434,0 4.692867,0 7.039301,0 0,-7.8158 0,-15.6317 0,-23.4475 0.460806,-3.0497 -0.532636,-6.4857 -3.207771,-8.2424 -2.242953,-1.5095 -5.036813,-2.1474 -7.706838,-2.1125 -3.204884,0.491 -5.510144,3.2748 -6.316319,6.2764 -0.47078,1.5607 -0.684385,3.1883 -0.7626759,4.8132 z"
       style="fill:none;stroke:#000000;stroke-width:0.98519033000000000px;stroke-linecap:butt;stroke-linejoin:miter;stroke-opacity:1" />
  </g>
</svg>
