<?xml version="1.0" encoding="UTF-8" standalone="no"?>
<!-- Created with Inkscape (http://www.inkscape.org/) -->

<svg
   xmlns:dc="http://purl.org/dc/elements/1.1/"
   xmlns:cc="http://creativecommons.org/ns#"
   xmlns:rdf="http://www.w3.org/1999/02/22-rdf-syntax-ns#"
   xmlns:svg="http://www.w3.org/2000/svg"
   xmlns="http://www.w3.org/2000/svg"
   xmlns:sodipodi="http://sodipodi.sourceforge.net/DTD/sodipodi-0.dtd"
   xmlns:inkscape="http://www.inkscape.org/namespaces/inkscape"
   width="36"
   height="36"
   id="svg2"
   version="1.1"
   inkscape:version="0.48.4 r9939"
   sodipodi:docname="wreath.svg"
   inkscape:export-filename="/home/jholveck/src/christmas-tree/decorations/stocking-silk.png"
   inkscape:export-xdpi="200"
   inkscape:export-ydpi="200">
  <defs
     id="defs4" />
  <sodipodi:namedview
     id="base"
     pagecolor="#ffffff"
     bordercolor="#666666"
     borderopacity="1.0"
     inkscape:pageopacity="0.0"
     inkscape:pageshadow="2"
     inkscape:zoom="22.4"
     inkscape:cx="12.601383"
     inkscape:cy="19.558861"
     inkscape:document-units="in"
     inkscape:current-layer="layer1"
     showgrid="false"
     units="in"
     inkscape:window-width="1920"
     inkscape:window-height="1006"
     inkscape:window-x="-2"
     inkscape:window-y="-3"
     inkscape:window-maximized="1" />
  <metadata
     id="metadata7">
    <rdf:RDF>
      <cc:Work
         rdf:about="">
        <dc:format>image/svg+xml</dc:format>
        <dc:type
           rdf:resource="http://purl.org/dc/dcmitype/StillImage" />
        <dc:title></dc:title>
      </cc:Work>
    </rdf:RDF>
  </metadata>
  <g
     inkscape:label="Layer 1"
     inkscape:groupmode="layer"
     id="layer1"
     transform="translate(0,-1016.3597)">
    <path
       style="fill:none;stroke:#000000;stroke-width:0.68344247000000002px;stroke-linecap:round;stroke-linejoin:miter;stroke-opacity:1"
       d="m 17.656005,1017.2335 0,16.6322"
       id="path4113"
       inkscape:connector-curvature="0" />
    <path
       style="fill:none;stroke:#000000;stroke-width:1px;stroke-linecap:round;stroke-linejoin:miter;stroke-opacity:1"
       d="m 17.656005,1024.7604 -5.871511,-5.8715"
       id="path4119"
       inkscape:connector-curvature="0" />
    <path
       style="fill:none;stroke:#000000;stroke-width:1px;stroke-linecap:round;stroke-linejoin:miter;stroke-opacity:1"
       d="m 17.624438,1029.5902 -4.640388,-4.6404"
       id="path4121"
       inkscape:connector-curvature="0" />
    <path
       style="fill:none;stroke:#000000;stroke-width:0.77841919999999998px;stroke-linecap:round;stroke-linejoin:miter;stroke-opacity:1"
       d="m 16.977004,1017.4523 0.758224,1.1213"
       id="path4125"
       inkscape:connector-curvature="0" />
    <path
       style="fill:none;stroke:#000000;stroke-width:1px;stroke-linecap:round;stroke-linejoin:miter;stroke-opacity:1"
       d="m 17.624438,1031.0423 -2.488148,-1.4366 0,2.8571"
       id="path4129"
       inkscape:connector-curvature="0" />
    <path
       inkscape:connector-curvature="0"
       id="path4742"
       d="m 3.2718809,1025.2777 14.4039081,8.3161"
       style="fill:none;stroke:#000000;stroke-width:0.68344247000000002px;stroke-linecap:round;stroke-linejoin:miter;stroke-opacity:1" />
    <path
       inkscape:connector-curvature="0"
       id="path4744"
       d="m 9.7903595,1029.0411 -8.0206337,2.1492"
       style="fill:none;stroke:#000000;stroke-width:1px;stroke-linecap:round;stroke-linejoin:miter;stroke-opacity:1" />
    <path
       inkscape:connector-curvature="0"
       id="path4746"
       d="m 13.957313,1031.4834 -6.3388978,1.6985"
       style="fill:none;stroke:#000000;stroke-width:1px;stroke-linecap:round;stroke-linejoin:miter;stroke-opacity:1" />
    <path
       inkscape:connector-curvature="0"
       id="path4748"
       d="m 3.1218668,1025.9751 1.3501863,-0.096"
       style="fill:none;stroke:#000000;stroke-width:0.77841919999999998px;stroke-linecap:round;stroke-linejoin:miter;stroke-opacity:1" />
    <path
       inkscape:connector-curvature="0"
       id="path4750"
       d="m 15.214849,1032.2094 -2.488148,1.4366 2.474286,1.4285"
       style="fill:none;stroke:#000000;stroke-width:1px;stroke-linecap:round;stroke-linejoin:miter;stroke-opacity:1" />
    <path
       inkscape:connector-curvature="0"
       id="path4730"
       d="M 3.4164789,1041.8081 17.820387,1033.492"
       style="fill:none;stroke:#000000;stroke-width:0.68344247000000002px;stroke-linecap:round;stroke-linejoin:miter;stroke-opacity:1" />
    <path
       inkscape:connector-curvature="0"
       id="path4732"
       d="m 9.9349578,1038.0448 -2.1491227,8.0206"
       style="fill:none;stroke:#000000;stroke-width:1px;stroke-linecap:round;stroke-linejoin:miter;stroke-opacity:1" />
    <path
       inkscape:connector-curvature="0"
       id="path4734"
       d="m 14.133478,1035.6571 -1.69851,6.3389"
       style="fill:none;stroke:#000000;stroke-width:1px;stroke-linecap:round;stroke-linejoin:miter;stroke-opacity:1" />
    <path
       inkscape:connector-curvature="0"
       id="path4736"
       d="m 3.9454658,1042.2868 0.5919623,-1.2173"
       style="fill:none;stroke:#000000;stroke-width:0.77841919999999998px;stroke-linecap:round;stroke-linejoin:miter;stroke-opacity:1" />
    <path
       inkscape:connector-curvature="0"
       id="path4738"
       d="m 15.391014,1034.9311 0,2.8731 2.474287,-1.4285"
       style="fill:none;stroke:#000000;stroke-width:1px;stroke-linecap:round;stroke-linejoin:miter;stroke-opacity:1" />
    <path
       inkscape:connector-curvature="0"
       id="path4718"
       d="m 17.871884,1049.8397 0,-16.6322"
       style="fill:none;stroke:#000000;stroke-width:0.68344247000000002px;stroke-linecap:round;stroke-linejoin:miter;stroke-opacity:1" />
    <path
       inkscape:connector-curvature="0"
       id="path4720"
       d="m 17.871884,1042.3128 5.871511,5.8715"
       style="fill:none;stroke:#000000;stroke-width:1px;stroke-linecap:round;stroke-linejoin:miter;stroke-opacity:1" />
    <path
       inkscape:connector-curvature="0"
       id="path4722"
       d="m 17.903451,1037.483 4.640388,4.6404"
       style="fill:none;stroke:#000000;stroke-width:1px;stroke-linecap:round;stroke-linejoin:miter;stroke-opacity:1" />
    <path
       inkscape:connector-curvature="0"
       id="path4724"
       d="m 18.550885,1049.6209 -0.758224,-1.1213"
       style="fill:none;stroke:#000000;stroke-width:0.77841919999999998px;stroke-linecap:round;stroke-linejoin:miter;stroke-opacity:1" />
    <path
       inkscape:connector-curvature="0"
       id="path4726"
       d="m 17.903451,1036.0309 2.488148,1.4366 0,-2.8571"
       style="fill:none;stroke:#000000;stroke-width:1px;stroke-linecap:round;stroke-linejoin:miter;stroke-opacity:1" />
    <path
       style="fill:none;stroke:#000000;stroke-width:0.68344247000000002px;stroke-linecap:round;stroke-linejoin:miter;stroke-opacity:1"
       d="m 32.256009,1041.7956 -14.403908,-8.3161"
       id="path4771"
       inkscape:connector-curvature="0" />
    <path
       style="fill:none;stroke:#000000;stroke-width:1px;stroke-linecap:round;stroke-linejoin:miter;stroke-opacity:1"
       d="m 25.73753,1038.0322 8.020634,-2.1492"
       id="path4773"
       inkscape:connector-curvature="0" />
    <path
       style="fill:none;stroke:#000000;stroke-width:1px;stroke-linecap:round;stroke-linejoin:miter;stroke-opacity:1"
       d="m 21.570577,1035.5899 6.338898,-1.6985"
       id="path4775"
       inkscape:connector-curvature="0" />
    <path
       style="fill:none;stroke:#000000;stroke-width:0.77841919999999998px;stroke-linecap:round;stroke-linejoin:miter;stroke-opacity:1"
       d="m 32.406023,1041.0981 -1.350186,0.096"
       id="path4777"
       inkscape:connector-curvature="0" />
    <path
       style="fill:none;stroke:#000000;stroke-width:1px;stroke-linecap:round;stroke-linejoin:miter;stroke-opacity:1"
       d="m 20.313041,1034.8639 2.488148,-1.4366 -2.474287,-1.4285"
       id="path4779"
       inkscape:connector-curvature="0" />
    <path
       style="fill:none;stroke:#000000;stroke-width:0.68344247000000002px;stroke-linecap:round;stroke-linejoin:miter;stroke-opacity:1"
       d="m 32.111411,1025.2651 -14.403908,8.3161"
       id="path4800"
       inkscape:connector-curvature="0" />
    <path
       style="fill:none;stroke:#000000;stroke-width:1px;stroke-linecap:round;stroke-linejoin:miter;stroke-opacity:1"
       d="m 25.592932,1029.0284 2.149123,-8.0206"
       id="path4802"
       inkscape:connector-curvature="0" />
    <path
       style="fill:none;stroke:#000000;stroke-width:1px;stroke-linecap:round;stroke-linejoin:miter;stroke-opacity:1"
       d="m 21.394412,1031.4161 1.69851,-6.3389"
       id="path4804"
       inkscape:connector-curvature="0" />
    <path
       style="fill:none;stroke:#000000;stroke-width:0.77841919999999998px;stroke-linecap:round;stroke-linejoin:miter;stroke-opacity:1"
       d="m 31.582424,1024.7864 -0.591962,1.2173"
       id="path4806"
       inkscape:connector-curvature="0" />
    <path
       style="fill:none;stroke:#000000;stroke-width:1px;stroke-linecap:round;stroke-linejoin:miter;stroke-opacity:1"
       d="m 20.136876,1032.1421 0,-2.8731 -2.474287,1.4285"
       id="path4808"
       inkscape:connector-curvature="0" />
    <path
       inkscape:connector-curvature="0"
       id="path4706"
       d="m 17.871884,1017.2335 0,16.6322"
       style="fill:none;stroke:#000000;stroke-width:0.68344247000000002px;stroke-linecap:round;stroke-linejoin:miter;stroke-opacity:1" />
    <path
       inkscape:connector-curvature="0"
       id="path4708"
       d="m 17.871884,1024.7604 5.871511,-5.8715"
       style="fill:none;stroke:#000000;stroke-width:1px;stroke-linecap:round;stroke-linejoin:miter;stroke-opacity:1" />
    <path
       inkscape:connector-curvature="0"
       id="path4710"
       d="m 17.903451,1029.5902 4.640388,-4.6404"
       style="fill:none;stroke:#000000;stroke-width:1px;stroke-linecap:round;stroke-linejoin:miter;stroke-opacity:1" />
    <path
       inkscape:connector-curvature="0"
       id="path4712"
       d="m 18.550885,1017.4523 -0.758224,1.1213"
       style="fill:none;stroke:#000000;stroke-width:0.77841919999999998px;stroke-linecap:round;stroke-linejoin:miter;stroke-opacity:1" />
    <path
       inkscape:connector-curvature="0"
       id="path4714"
       d="m 17.903451,1031.0423 2.488148,-1.4366 0,2.8571"
       style="fill:none;stroke:#000000;stroke-width:1px;stroke-linecap:round;stroke-linejoin:miter;stroke-opacity:1" />
    <path
       style="fill:none;stroke:#000000;stroke-width:0.68344247000000002px;stroke-linecap:round;stroke-linejoin:miter;stroke-opacity:1"
       d="m 32.256009,1025.2777 -14.403908,8.3161"
       id="path4759"
       inkscape:connector-curvature="0" />
    <path
       style="fill:none;stroke:#000000;stroke-width:1px;stroke-linecap:round;stroke-linejoin:miter;stroke-opacity:1"
       d="m 25.73753,1029.0411 8.020634,2.1492"
       id="path4761"
       inkscape:connector-curvature="0" />
    <path
       style="fill:none;stroke:#000000;stroke-width:1px;stroke-linecap:round;stroke-linejoin:miter;stroke-opacity:1"
       d="m 21.570577,1031.4834 6.338898,1.6985"
       id="path4763"
       inkscape:connector-curvature="0" />
    <path
       style="fill:none;stroke:#000000;stroke-width:0.77841919999999998px;stroke-linecap:round;stroke-linejoin:miter;stroke-opacity:1"
       d="m 32.406023,1025.9751 -1.350186,-0.096"
       id="path4765"
       inkscape:connector-curvature="0" />
    <path
       style="fill:none;stroke:#000000;stroke-width:1px;stroke-linecap:round;stroke-linejoin:miter;stroke-opacity:1"
       d="m 20.313041,1032.2094 2.488148,1.4366 -2.474287,1.4285"
       id="path4767"
       inkscape:connector-curvature="0" />
    <path
       style="fill:none;stroke:#000000;stroke-width:0.68344247000000002px;stroke-linecap:round;stroke-linejoin:miter;stroke-opacity:1"
       d="M 32.111411,1041.8081 17.707503,1033.492"
       id="path4788"
       inkscape:connector-curvature="0" />
    <path
       style="fill:none;stroke:#000000;stroke-width:1px;stroke-linecap:round;stroke-linejoin:miter;stroke-opacity:1"
       d="m 25.592932,1038.0448 2.149123,8.0206"
       id="path4790"
       inkscape:connector-curvature="0" />
    <path
       style="fill:none;stroke:#000000;stroke-width:1px;stroke-linecap:round;stroke-linejoin:miter;stroke-opacity:1"
       d="m 21.394412,1035.6571 1.69851,6.3389"
       id="path4792"
       inkscape:connector-curvature="0" />
    <path
       style="fill:none;stroke:#000000;stroke-width:0.77841919999999998px;stroke-linecap:round;stroke-linejoin:miter;stroke-opacity:1"
       d="m 31.582424,1042.2868 -0.591962,-1.2173"
       id="path4794"
       inkscape:connector-curvature="0" />
    <path
       style="fill:none;stroke:#000000;stroke-width:1px;stroke-linecap:round;stroke-linejoin:miter;stroke-opacity:1"
       d="m 20.136876,1034.9311 0,2.8731 -2.474287,-1.4285"
       id="path4796"
       inkscape:connector-curvature="0" />
    <path
       style="fill:none;stroke:#000000;stroke-width:0.68344247000000002px;stroke-linecap:round;stroke-linejoin:miter;stroke-opacity:1"
       d="m 17.656005,1049.8397 0,-16.6322"
       id="path4817"
       inkscape:connector-curvature="0" />
    <path
       style="fill:none;stroke:#000000;stroke-width:1px;stroke-linecap:round;stroke-linejoin:miter;stroke-opacity:1"
       d="m 17.656005,1042.3128 -5.871511,5.8715"
       id="path4819"
       inkscape:connector-curvature="0" />
    <path
       style="fill:none;stroke:#000000;stroke-width:1px;stroke-linecap:round;stroke-linejoin:miter;stroke-opacity:1"
       d="m 17.624438,1037.483 -4.640388,4.6404"
       id="path4821"
       inkscape:connector-curvature="0" />
    <path
       style="fill:none;stroke:#000000;stroke-width:0.77841919999999998px;stroke-linecap:round;stroke-linejoin:miter;stroke-opacity:1"
       d="m 16.977004,1049.6209 0.758224,-1.1213"
       id="path4823"
       inkscape:connector-curvature="0" />
    <path
       style="fill:none;stroke:#000000;stroke-width:1px;stroke-linecap:round;stroke-linejoin:miter;stroke-opacity:1"
       d="m 17.624438,1036.0309 -2.488148,1.4366 0,-2.8571"
       id="path4825"
       inkscape:connector-curvature="0" />
    <path
       inkscape:connector-curvature="0"
       id="path4839"
       d="m 3.2718809,1041.7956 14.4039081,-8.3161"
       style="fill:none;stroke:#000000;stroke-width:0.68344247000000002px;stroke-linecap:round;stroke-linejoin:miter;stroke-opacity:1" />
    <path
       inkscape:connector-curvature="0"
       id="path4841"
       d="M 9.7903595,1038.0322 1.7697258,1035.883"
       style="fill:none;stroke:#000000;stroke-width:1px;stroke-linecap:round;stroke-linejoin:miter;stroke-opacity:1" />
    <path
       inkscape:connector-curvature="0"
       id="path4843"
       d="m 13.957313,1035.5899 -6.3388978,-1.6985"
       style="fill:none;stroke:#000000;stroke-width:1px;stroke-linecap:round;stroke-linejoin:miter;stroke-opacity:1" />
    <path
       inkscape:connector-curvature="0"
       id="path4845"
       d="m 3.1218668,1041.0981 1.3501863,0.096"
       style="fill:none;stroke:#000000;stroke-width:0.77841919999999998px;stroke-linecap:round;stroke-linejoin:miter;stroke-opacity:1" />
    <path
       inkscape:connector-curvature="0"
       id="path4847"
       d="m 15.214849,1034.8639 -2.488148,-1.4366 2.474286,-1.4285"
       style="fill:none;stroke:#000000;stroke-width:1px;stroke-linecap:round;stroke-linejoin:miter;stroke-opacity:1" />
    <path
       inkscape:connector-curvature="0"
       id="path4856"
       d="m 3.4164789,1025.2651 14.4039081,8.3161"
       style="fill:none;stroke:#000000;stroke-width:0.68344247000000002px;stroke-linecap:round;stroke-linejoin:miter;stroke-opacity:1" />
    <path
       inkscape:connector-curvature="0"
       id="path4858"
       d="m 9.9349578,1029.0284 -2.1491227,-8.0206"
       style="fill:none;stroke:#000000;stroke-width:1px;stroke-linecap:round;stroke-linejoin:miter;stroke-opacity:1" />
    <path
       inkscape:connector-curvature="0"
       id="path4860"
       d="m 14.133478,1031.4161 -1.69851,-6.3389"
       style="fill:none;stroke:#000000;stroke-width:1px;stroke-linecap:round;stroke-linejoin:miter;stroke-opacity:1" />
    <path
       inkscape:connector-curvature="0"
       id="path4862"
       d="m 3.9454658,1024.7864 0.5919623,1.2173"
       style="fill:none;stroke:#000000;stroke-width:0.77841919999999998px;stroke-linecap:round;stroke-linejoin:miter;stroke-opacity:1" />
    <path
       inkscape:connector-curvature="0"
       id="path4864"
       d="m 15.391014,1032.1421 0,-2.8731 2.474287,1.4285"
       style="fill:none;stroke:#000000;stroke-width:1px;stroke-linecap:round;stroke-linejoin:miter;stroke-opacity:1" />
    <path
       style="fill:#000000;fill-opacity:1;stroke:#000000;stroke-width:0.01581834;stroke-linecap:round;stroke-miterlimit:4;stroke-dasharray:none"
       d="m 13.014887,9.261173 c -0.301623,0.1779222 -0.298688,0.5252249 -0.185547,0.814732 0.436491,1.617129 0.848687,3.244391 1.306667,4.853417 0.135487,0.449047 0.853987,0.406526 0.936408,-0.0508 0.06471,-0.661293 0.02893,-1.33524 0.06161,-1.99988 0.148941,-0.201964 0.345031,0.108928 0.520368,0.152065 0.363825,0.160247 0.718773,0.551686 1.146763,0.366909 0.355733,-0.202127 0.309118,-0.707087 -0.0028,-0.92634 C 15.746337,11.417555 14.720849,10.334542 13.61338,9.339298 13.442714,9.1940489 13.217905,9.173099 13.014887,9.261173 z"
       id="path4902"
       inkscape:connector-curvature="0"
       transform="translate(0,1016.3597)" />
    <path
       style="fill:#000000;fill-opacity:1;stroke:#000000;stroke-width:0.01581834;stroke-linecap:round;stroke-miterlimit:4;stroke-dasharray:none"
       d="m 22.062041,9.1900234 c -0.642504,0.5243504 -1.192557,1.1598376 -1.795123,1.7310316 -0.560103,0.58257 -1.178693,1.140321 -1.696245,1.748809 -0.327162,0.367716 0.14109,0.954636 0.579817,0.759836 0.385466,-0.193894 0.752282,-0.421047 1.128627,-0.631976 0.253679,0.149336 0.093,0.488272 0.139418,0.739392 0.02638,0.4734 -0.05438,0.99196 0.07682,1.429972 0.189728,0.352983 0.743695,0.33147 0.896846,-0.03853 0.485466,-1.684713 0.915566,-3.38846 1.358871,-5.0859524 C 22.89868,9.4141298 22.488852,9.0024397 22.06204,9.1900234 z"
       id="path4904"
       inkscape:connector-curvature="0"
       transform="translate(0,1016.3597)" />
    <path
       style="fill:#000000;fill-opacity:1;stroke:#000000;stroke-width:0.01581834;stroke-linecap:round;stroke-miterlimit:4;stroke-dasharray:none"
       d="m 21.229173,15.219599 c -0.365919,0.207877 -0.310459,0.757622 0.04464,0.917969 0.581829,0.360212 1.180119,0.694075 1.768973,1.042132 -0.62543,0.380889 -1.29497,0.699868 -1.889492,1.125647 -0.341715,0.308876 -0.05044,0.939994 0.410575,0.874403 1.794769,-0.441405 3.582042,-0.927147 5.360905,-1.432712 0.312689,-0.06369 0.705716,-0.258188 0.653841,-0.635775 -0.0727,-0.516643 -0.666321,-0.491558 -1.061455,-0.63809 -1.659715,-0.440632 -3.312249,-0.906814 -4.982233,-1.305562 -0.104369,-0.02295 -0.203925,0.03744 -0.305757,0.05199 z"
       id="path4906"
       inkscape:connector-curvature="0"
       transform="translate(0,1016.3597)" />
    <path
       style="fill:#000000;fill-opacity:1;stroke:#000000;stroke-width:0.01581834;stroke-linecap:round;stroke-miterlimit:4;stroke-dasharray:none"
       d="m 20.630679,19.21653 c -0.335362,0.337624 -0.146687,0.858424 -0.203326,1.283433 -0.0044,0.33204 -0.004,0.664126 -0.01012,0.996143 -0.166175,0.182418 -0.357539,-0.121297 -0.539765,-0.171471 -0.347582,-0.154615 -0.662317,-0.48958 -1.063151,-0.444857 -0.428579,0.07063 -0.516843,0.661153 -0.193959,0.906506 1.117396,1.132192 2.223782,2.278044 3.387277,3.362166 0.365489,0.250026 0.88594,-0.127496 0.763113,-0.551061 -0.436105,-1.722746 -0.895959,-3.443562 -1.37363,-5.153361 -0.111966,-0.316249 -0.49755,-0.41054 -0.766437,-0.227498 z"
       id="path4908"
       inkscape:connector-curvature="0"
       transform="translate(0,1016.3597)" />
    <path
       style="fill:#000000;fill-opacity:1;stroke:#000000;stroke-width:0.01581834;stroke-linecap:round;stroke-miterlimit:4;stroke-dasharray:none"
       d="m 14.419742,19.092367 c -0.412638,0.240538 -0.359551,0.794979 -0.52065,1.192861 -0.383266,1.473045 -0.816312,2.936732 -1.160527,4.417642 -0.02929,0.440849 0.55538,0.686646 0.859469,0.37722 1.163572,-1.109617 2.316168,-2.251373 3.420759,-3.419364 0.261017,-0.35489 -0.118929,-0.912487 -0.542086,-0.758266 -0.423366,0.144303 -0.826587,0.445675 -1.235257,0.66061 -0.212341,-0.123416 -0.08813,-0.39449 -0.124423,-0.599887 -0.03206,-0.547972 0.0627,-1.111277 -0.06252,-1.647602 -0.142471,-0.218144 -0.386931,-0.304944 -0.634766,-0.223214 z"
       id="path4910"
       inkscape:connector-curvature="0"
       transform="translate(0,1016.3597)" />
    <path
       style="fill:#000000;fill-opacity:1;stroke:#000000;stroke-width:0.01581834;stroke-linecap:round;stroke-miterlimit:4;stroke-dasharray:none"
       d="m 13.952387,15.170771 c -1.893945,0.481302 -3.784618,0.979752 -5.6654575,1.509487 -0.4216812,0.132492 -0.4497987,0.77162 -0.043248,0.941685 1.4645486,0.490655 2.9755925,0.835061 4.4626495,1.25206 0.459877,0.09503 0.910498,0.293231 1.38417,0.290909 0.329492,-0.03929 0.556886,-0.466512 0.360175,-0.767605 -0.287106,-0.335508 -0.74174,-0.476202 -1.101944,-0.723416 -0.277806,-0.166004 -0.60636,-0.333381 -0.851423,-0.498377 0.632893,-0.395201 1.315163,-0.724627 1.922433,-1.163504 0.317551,-0.312281 0.03944,-0.902983 -0.402948,-0.847845 l -0.04441,0.0046 -0.02,0.0021 z"
       id="path4912"
       inkscape:connector-curvature="0"
       transform="translate(0,1016.3597)" />
  </g>
</svg>
