<?xml version="1.0" encoding="UTF-8" standalone="no"?>
<!-- Created with Inkscape (http://www.inkscape.org/) -->

<svg
   xmlns:dc="http://purl.org/dc/elements/1.1/"
   xmlns:cc="http://creativecommons.org/ns#"
   xmlns:rdf="http://www.w3.org/1999/02/22-rdf-syntax-ns#"
   xmlns:svg="http://www.w3.org/2000/svg"
   xmlns="http://www.w3.org/2000/svg"
   xmlns:xlink="http://www.w3.org/1999/xlink"
   xmlns:sodipodi="http://sodipodi.sourceforge.net/DTD/sodipodi-0.dtd"
   xmlns:inkscape="http://www.inkscape.org/namespaces/inkscape"
   width="36.351532"
   height="39.840454"
   id="svg2"
   version="1.1"
   inkscape:version="0.48.4 r9939"
   sodipodi:docname="wreath.svg"
   inkscape:export-filename="/home/jholveck/src/christmas-tree/decorations/wreath-cu.png"
   inkscape:export-xdpi="599.46002"
   inkscape:export-ydpi="599.46002">
  <defs
     id="defs4" />
  <sodipodi:namedview
     id="base"
     pagecolor="#ffffff"
     bordercolor="#666666"
     borderopacity="1.0"
     inkscape:pageopacity="0.0"
     inkscape:pageshadow="2"
     inkscape:zoom="14.672921"
     inkscape:cx="6.1188736"
     inkscape:cy="17.46944"
     inkscape:document-units="in"
     inkscape:current-layer="layer6"
     showgrid="false"
     units="in"
     inkscape:window-width="1920"
     inkscape:window-height="1006"
     inkscape:window-x="-2"
     inkscape:window-y="-3"
     inkscape:window-maximized="1"
     fit-margin-top="0"
     fit-margin-left="2.7755576e-17"
     fit-margin-right="0"
     fit-margin-bottom="0" />
  <metadata
     id="metadata7">
    <rdf:RDF>
      <cc:Work
         rdf:about="">
        <dc:format>image/svg+xml</dc:format>
        <dc:type
           rdf:resource="http://purl.org/dc/dcmitype/StillImage" />
        <dc:title></dc:title>
      </cc:Work>
    </rdf:RDF>
  </metadata>
  <g
     inkscape:groupmode="layer"
     id="layer4"
     inkscape:label="SilkS"
     style="display:inline"
     transform="translate(0.37563323,1.1817985)">
    <g
       inkscape:groupmode="layer"
       id="layer5"
       inkscape:label="Holly">
      <path
         sodipodi:type="arc"
         style="fill:#000000;fill-opacity:1;stroke:none"
         id="path3178"
         sodipodi:cx="13.85803"
         sodipodi:cy="3.1384752"
         sodipodi:rx="3.6933701"
         sodipodi:ry="3.6933701"
         d="m 17.5514,3.1384752 a 3.6933701,3.6933701 0 1 1 -7.38674,0 3.6933701,3.6933701 0 1 1 7.38674,0 z"
         transform="matrix(1.1519563,0,0,1.1519563,-1.2257389,-0.54258379)" />
      <use
         x="0"
         y="0"
         xlink:href="#path3178"
         id="use3399"
         transform="translate(-5.2401659,2.841054)"
         width="36"
         height="36" />
      <use
         x="0"
         y="0"
         xlink:href="#use3399"
         id="use3401"
         transform="translate(-3.8512059,4.0406101)"
         width="36"
         height="36" />
      <use
         x="0"
         y="0"
         xlink:href="#use3401"
         id="use3403"
         transform="translate(-1.7677669,5.4295699)"
         width="36"
         height="36" />
      <use
         x="0"
         y="0"
         xlink:href="#use3403"
         id="use3405"
         transform="translate(0.18940407,6.060915)"
         width="36"
         height="36" />
      <use
         x="0"
         y="0"
         xlink:href="#use3405"
         id="use3407"
         transform="translate(2.4622471,5.3033008)"
         width="36"
         height="36" />
      <use
         x="0"
         y="0"
         xlink:href="#use3407"
         id="use3409"
         transform="translate(3.9774761,3.788072)"
         width="36"
         height="36" />
      <use
         x="0"
         y="0"
         xlink:href="#use3409"
         id="use3411"
         transform="translate(4.6719561,2.1465741)"
         width="36"
         height="36" />
      <use
         x="0"
         y="0"
         xlink:href="#use3411"
         id="use3413"
         transform="translate(6.1240501,-0.44194169)"
         width="36"
         height="36" />
      <use
         x="0"
         y="0"
         xlink:href="#use3413"
         id="use3415"
         transform="translate(5.1138971,-2.3991123)"
         width="36"
         height="36" />
      <use
         x="0"
         y="0"
         xlink:href="#use3415"
         id="use3417"
         transform="translate(3.9774761,-4.9244936)"
         width="36"
         height="36" />
      <use
         x="0"
         y="0"
         xlink:href="#use3417"
         id="use3419"
         transform="translate(1.3258251,-4.7982246)"
         width="36"
         height="36" />
      <use
         x="0"
         y="0"
         xlink:href="#use3419"
         id="use3421"
         transform="translate(-0.06313393,-4.9876282)"
         width="36"
         height="36" />
      <use
         x="0"
         y="0"
         xlink:href="#use3421"
         id="use3423"
         transform="translate(-2.0203049,-5.1138972)"
         width="36"
         height="36" />
      <use
         x="0"
         y="0"
         xlink:href="#use3423"
         id="use3425"
         transform="translate(-3.7249369,-4.2300138)"
         width="36"
         height="36" />
      <use
         x="0"
         y="0"
         xlink:href="#use3425"
         id="use3427"
         transform="translate(-4.8613589,-2.4622468)"
         width="36"
         height="36" />
    </g>
    <g
       inkscape:label="Bell copy"
       id="g4696"
       inkscape:groupmode="layer">
      <path
         style="fill:#ffffff;stroke:#ffffff;stroke-width:0.44999999;stroke-linecap:round;stroke-linejoin:round;stroke-miterlimit:4;stroke-opacity:1;stroke-dasharray:none"
         d="m 15.956608,7.8073788 c 0.04154,1.6901965 -0.110166,1.8361558 0.01579,2.9932352 -0.981189,0.794975 -1.536493,1.900927 -1.387218,4.253072 2.230325,0 4.460651,0 6.690976,0 -0.0087,-1.735933 0.288771,-2.495749 -1.233952,-4.303066 -0.01579,-1.1984408 -0.04735,-1.7655358 -0.06314,-2.9639763 -0.0042,-1.5346562 -3.774221,-2.0228215 -3.958855,0.031567"
         id="path4698"
         inkscape:connector-curvature="0"
         sodipodi:nodetypes="ccccccc" />
    </g>
    <g
       inkscape:groupmode="layer"
       id="layer6"
       inkscape:label="Berries"
       style="display:inline">
      <path
         sodipodi:type="arc"
         style="fill:#000000;fill-opacity:1;stroke:#ffffff;stroke-width:0.37656251;stroke-miterlimit:4;stroke-dasharray:none;display:inline"
         id="path3467"
         sodipodi:cx="-11.71875"
         sodipodi:cy="9.34375"
         sodipodi:rx="1.28125"
         sodipodi:ry="1.28125"
         d="m -10.4375,9.34375 a 1.28125,1.28125 0 1 1 -2.5625,0 1.28125,1.28125 0 1 1 2.5625,0 z"
         transform="matrix(1.1950207,0,0,1.1950208,23.882003,-5.432283)" />
      <g
         id="g4665">
        <use
           height="36"
           width="36"
           transform="translate(-5.4520072,17.859251)"
           id="use4237"
           xlink:href="#path3467"
           y="0"
           x="0" />
        <use
           height="36"
           width="36"
           transform="translate(2.776918,1.2963988)"
           id="use4239"
           xlink:href="#use4237"
           y="0"
           x="0" />
        <use
           height="36"
           width="36"
           transform="translate(-2.5014802,1.7545345)"
           id="use4241"
           xlink:href="#use4239"
           y="0"
           x="0" />
      </g>
      <use
         style="display:inline"
         x="0"
         y="0"
         xlink:href="#path3467"
         id="use4250"
         transform="translate(21.831922,19.003495)"
         width="36"
         height="36" />
      <use
         x="0"
         y="0"
         xlink:href="#g4665"
         id="use4670"
         transform="matrix(0.40351152,0.91497456,-0.91497456,0.40351152,51.365761,-3.3487435)"
         width="36"
         height="36" />
    </g>
    <g
       inkscape:groupmode="layer"
       id="layer7"
       inkscape:label="Bow">
      <path
         style="fill:#ffffff;stroke:#ffffff;stroke-width:0.44999999;stroke-linecap:butt;stroke-linejoin:miter;stroke-miterlimit:4;stroke-opacity:1;stroke-dasharray:none"
         d="m 11.710478,28.024343 c 2.626425,-0.05622 4.048067,1.092336 5.349232,2.843285 0.554682,-0.354622 1.602288,-0.366955 2.144511,-4e-6 1.288861,-1.689199 2.928065,-3.109119 5.132371,-2.795094 -0.897651,2.84063 1.064023,7.747815 -0.28915,10.361124 -1.255032,-2.493042 -3.771729,-2.343854 -4.91551,-4.385406 -0.5858,0.299385 -1.135629,0.343108 -1.951746,-0.02825 -1.140527,2.152543 -3.750888,1.317727 -4.987797,4.41 -1.445737,-3.003919 0.891541,-7.064401 -0.481911,-10.405657 z"
         id="path4326"
         inkscape:connector-curvature="0"
         sodipodi:nodetypes="ccccccccc" />
    </g>
  </g>
  <g
     style="display:inline"
     inkscape:label="Cu"
     id="g5185"
     inkscape:groupmode="layer"
     transform="translate(0.37563323,1.1817985)"
     sodipodi:insensitive="true">
    <g
       style="display:inline"
       inkscape:label="Berries copy"
       id="g4672"
       inkscape:groupmode="layer">
      <path
         transform="matrix(1.1950207,0,0,1.1950208,23.882003,-5.432283)"
         d="m -10.4375,9.34375 a 1.28125,1.28125 0 1 1 -2.5625,0 1.28125,1.28125 0 1 1 2.5625,0 z"
         sodipodi:ry="1.28125"
         sodipodi:rx="1.28125"
         sodipodi:cy="9.34375"
         sodipodi:cx="-11.71875"
         id="path4674"
         style="fill:#000000;fill-opacity:1;stroke:#ffffff;stroke-width:0.37656251;stroke-miterlimit:4;stroke-dasharray:none;display:inline"
         sodipodi:type="arc" />
      <g
         id="g4676">
        <use
           x="0"
           y="0"
           xlink:href="#path3467"
           id="use4678"
           transform="translate(-5.4520072,17.859251)"
           width="36"
           height="36" />
        <use
           x="0"
           y="0"
           xlink:href="#use4237"
           id="use4680"
           transform="translate(2.776918,1.2963988)"
           width="36"
           height="36" />
        <use
           x="0"
           y="0"
           xlink:href="#use4239"
           id="use4682"
           transform="translate(-2.5014802,1.7545345)"
           width="36"
           height="36" />
      </g>
      <use
         height="36"
         width="36"
         transform="translate(21.831922,19.003495)"
         id="use4684"
         xlink:href="#path3467"
         y="0"
         x="0"
         style="display:inline" />
      <use
         height="36"
         width="36"
         transform="matrix(0.40351152,0.91497456,-0.91497456,0.40351152,51.365761,-3.3487435)"
         id="use4686"
         xlink:href="#g4665"
         y="0"
         x="0" />
    </g>
    <g
       style="display:inline"
       inkscape:label="Bow copy"
       id="g4359"
       inkscape:groupmode="layer">
      <path
         sodipodi:nodetypes="ccccccccc"
         inkscape:connector-curvature="0"
         id="path4361"
         d="m 11.710478,28.024343 c 2.626425,-0.05622 4.048067,1.092336 5.349232,2.843285 0.554682,-0.354622 1.602288,-0.366955 2.144511,-4e-6 1.288861,-1.689199 2.928065,-3.109119 5.132371,-2.795094 -0.897651,2.84063 1.064023,7.747815 -0.28915,10.361124 -1.255032,-2.493042 -3.771729,-2.343854 -4.91551,-4.385406 -0.5858,0.299385 -1.135629,0.343108 -1.951746,-0.02825 -1.140527,2.152543 -3.750888,1.317727 -4.987797,4.41 -1.445737,-3.003919 0.891541,-7.064401 -0.481911,-10.405657 z"
         style="fill:#000000;stroke:#ffffff;stroke-width:0.44999999;stroke-linecap:butt;stroke-linejoin:miter;stroke-miterlimit:4;stroke-opacity:1;stroke-dasharray:none" />
    </g>
    <g
       inkscape:groupmode="layer"
       id="layer10"
       inkscape:label="Bell">
      <path
         sodipodi:nodetypes="ccccccc"
         inkscape:connector-curvature="0"
         id="path5195"
         d="m 15.956608,7.8073788 c 0.04154,1.6901965 -0.110166,1.8361558 0.01579,2.9932352 -0.981189,0.794975 -1.536493,1.900927 -1.387218,4.253072 2.230325,0 4.460651,0 6.690976,0 -0.0087,-1.735933 0.288771,-2.495749 -1.233952,-4.303066 -0.01579,-1.1984408 -0.04735,-1.7655358 -0.06314,-2.9639763 -0.0042,-1.5346562 -3.774221,-2.0228215 -3.958855,0.031567"
         style="fill:#000000;stroke:#ffffff;stroke-width:0.44999999;stroke-linecap:round;stroke-linejoin:round;stroke-miterlimit:4;stroke-opacity:1;stroke-dasharray:none" />
    </g>
  </g>
</svg>
